# xmcd
#
# Track frame offsets:
#	150
#	16173
#	31906
#	47129
#	65383
#	83612
#	96925
#	120508
#	136541
#	152920
#	170228
#	182321
#
# Disc length: 2714 seconds
#
# Revision: 0
# Processed by: cddbd v1.5.1PL2 Copyright (c) Steve Scherf et al.
# Submitted via: dBpowerAMP V4.0
#
DISCID=8b0a980c
DTITLE=Ricky Fantè - Rewind
DYEAR=2005
DGENRE=R&B
TTITLE0=I Let You Go 
TTITLE1=It Ain't Easy
TTITLE2=Drive
TTITLE3=Are You Lonely Too? 
TTITLE4=Why
TTITLE5=Love Doesn't Live Here No More
TTITLE6=It's Over Now
TTITLE7=Smile
TTITLE8=He Don't Love You 
TTITLE9=If It's Love 
TTITLE10=My Song
TTITLE11=A Woman's Touch
EXTD=
EXTT0=
EXTT1=
EXTT2=
EXTT3=
EXTT4=
EXTT5=
EXTT6=
EXTT7=
EXTT8=
EXTT9=
EXTT10=
EXTT11=
PLAYORDER=
